<?xml version="1.0" standalone="no"?>
<!DOCTYPE svg PUBLIC "-//W3C//DTD SVG 20010904//EN"
 "http://www.w3.org/TR/2001/REC-SVG-20010904/DTD/svg10.dtd">
<svg version="1.0" xmlns="http://www.w3.org/2000/svg"
 width="300.000000pt" height="96.000000pt" viewBox="0 0 300.000000 96.000000"
 preserveAspectRatio="xMidYMid meet">

<g transform="translate(0.000000,96.000000) scale(0.100000,-0.100000)"
fill="#000000" stroke="none">
<path d="M235 881 c-62 -38 -113 -115 -150 -225 -71 -210 11 -444 174 -502 50
-18 167 -17 231 2 30 9 91 36 137 60 114 60 141 59 254 -6 105 -60 166 -77
227 -61 l42 12 0 95 c0 78 -3 95 -14 91 -101 -39 -165 -30 -301 39 -90 46 -91
46 -125 30 -19 -9 -77 -45 -127 -80 -101 -70 -223 -126 -274 -126 -77 0 -160
85 -193 199 -46 156 20 329 148 391 50 24 81 17 114 -25 23 -29 38 -101 28
-139 -5 -19 -11 -23 -27 -19 -29 8 -49 -20 -49 -68 0 -77 64 -79 100 -2 44 93
17 233 -59 314 -44 45 -86 51 -136 20z"/>
</g>
</svg>
